# xmcd CD database file
#
# Track frame offsets:
#	150
#	58214
#	73920
#	118375
#	159640
#	211466
#
# Disc length: 3708 seconds
#
# Revision: 0
# Processed by: cddbd v1.5.1PL2 Copyright (c) Steve Scherf et al.
# Submitted via: CDex 1.50
#
DISCID=620e7a06
DTITLE=Von Freeman - Lester Leaps In
DYEAR=1992
DGENRE=Jazz
TTITLE0=Scrapple From The Apple
TTITLE1=All About Ronnie
TTITLE2=I Love You
TTITLE3=A Nightingale Sang In Berkeley Square
TTITLE4=The Wiffenproof Song
TTITLE5=Lester Leaps In
EXTD=YEAR: 1992
EXTT0=
EXTT1=
EXTT2=
EXTT3=
EXTT4=
EXTT5=
PLAYORDER=
